/* XPM */
static char *_32ae36f1d81491abc0f9e3a42706896ob1jDDcAoQ50MoMS[] = {
/* columns rows colors chars-per-pixel */
"64 64 232 2 ",
"   c None",
".  c #120F0D",
"X  c #15120E",
"o  c #1A140E",
"O  c #17180C",
"+  c #0E181E",
"@  c #0E1718",
"#  c #151414",
"$  c #1A1414",
"%  c #1C1A15",
"&  c #13151A",
"*  c #1A1519",
"=  c #12191D",
"-  c #1C1B1C",
";  c #151916",
":  c #140F12",
">  c #26190E",
",  c #231613",
"<  c #241B14",
"1  c #291D14",
"2  c #221D1C",
"3  c #281B18",
"4  c #311E12",
"5  c #1E201B",
"6  c #292115",
"7  c #2B241C",
"8  c #26231B",
"9  c #352B1D",
"0  c #372615",
"q  c #0E1C24",
"w  c #0E1D2A",
"e  c #121B23",
"r  c #1B1D23",
"t  c #141B27",
"y  c #231C23",
"u  c #2B1E28",
"i  c #301E2E",
"p  c #13222B",
"a  c #172226",
"s  c #152733",
"d  c #252223",
"f  c #2A2424",
"g  c #2D2A25",
"h  c #2B222A",
"j  c #2C2A2C",
"k  c #26262B",
"l  c #342C23",
"z  c #372C26",
"x  c #34322D",
"c  c #3B3228",
"v  c #2E2C31",
"b  c #332B34",
"n  c #3A2B36",
"m  c #3D2C3B",
"M  c #362533",
"N  c #343234",
"B  c #3C3A34",
"V  c #3C3B3B",
"C  c #393439",
"Z  c #2E3031",
"A  c #412615",
"S  c #473419",
"D  c #583714",
"F  c #463B2D",
"G  c #4A3D2D",
"H  c #443628",
"J  c #432D3C",
"K  c #423E3D",
"L  c #443739",
"P  c #543D24",
"I  c #6F4814",
"U  c #56442C",
"Y  c #44433B",
"T  c #4B4336",
"R  c #564937",
"E  c #5C513D",
"W  c #4A442E",
"Q  c #66553A",
"!  c #69502D",
"~  c #7C6234",
"^  c #3B3A41",
"/  c #3C2C40",
"(  c #443244",
")  c #4D364A",
"_  c #4B3849",
"`  c #533B4D",
"'  c #593D59",
"]  c #422D40",
"[  c #613E5E",
"{  c #3E4043",
"}  c #444343",
"|  c #4B4B4C",
" . c #484746",
".. c #584C45",
"X. c #57544B",
"o. c #5D415A",
"O. c #594454",
"+. c #525253",
"@. c #5B5A5C",
"#. c #595757",
"$. c #4E4E51",
"%. c #6B5B44",
"&. c #685A46",
"*. c #605C58",
"=. c #725D48",
"-. c #73624B",
";. c #7A684A",
":. c #68645D",
">. c #7C6B52",
",. c #796955",
"<. c #6D6149",
"1. c #595B61",
"2. c #6A5F6B",
"3. c #656363",
"4. c #6C6B6C",
"5. c #696767",
"6. c #716C6A",
"7. c #76716D",
"8. c #6E6D71",
"9. c #7B7A7C",
"0. c #777675",
"q. c #726B73",
"w. c #B1701E",
"e. c #9A692D",
"r. c #B87C2C",
"t. c #925D1D",
"y. c #C67F2D",
"u. c #8D7A5C",
"i. c #867557",
"p. c #927D5D",
"a. c #826E56",
"s. c #8B7A63",
"d. c #907E63",
"f. c #827D7A",
"g. c #CA832B",
"h. c #998564",
"j. c #998668",
"k. c #89847D",
"l. c #A48D6B",
"z. c #A8926D",
"x. c #A38E73",
"c. c #AB9675",
"v. c #B49C74",
"b. c #B59A79",
"n. c #B69B6F",
"m. c #BDA57D",
"M. c #B9A278",
"N. c #9C855F",
"B. c #C4A97A",
"V. c #CFB27E",
"C. c #7E7E84",
"Z. c #807F84",
"A. c #7D8081",
"S. c #8B8A8C",
"D. c #878585",
"F. c #96938D",
"G. c #8D8C93",
"H. c #958F99",
"J. c #979699",
"K. c #948F8A",
"L. c #A59C94",
"P. c #BDA683",
"I. c #BAA884",
"U. c #ADA39C",
"Y. c #A3A29E",
"T. c #B1A59D",
"R. c #9C9DA3",
"E. c #A3A2A5",
"W. c #AAAAAC",
"Q. c #A9A8A9",
"!. c #B2ACA6",
"~. c #AEADB2",
"^. c #B2B2B6",
"/. c #B5B5BB",
"(. c #BBBABB",
"). c #B2B1B4",
"_. c #A09FA3",
"`. c #C6AB85",
"'. c #CDB385",
"]. c #CDB389",
"[. c #C6B289",
"{. c #D3B483",
"}. c #D3B589",
"|. c #D4BA8C",
" X c #DBBC8B",
".X c #D9B985",
"XX c #D2BA93",
"oX c #E1BE89",
"OX c #C5BCB2",
"+X c #DDC18D",
"@X c #DFC393",
"#X c #E4C38C",
"$X c #E1C287",
"%X c #E5C593",
"&X c #EBCB94",
"*X c #EBCC9A",
"=X c #E5C896",
"-X c #F4CF95",
";X c #F4CF99",
":X c #EED399",
">X c #F4D195",
",X c #F4D19A",
"<X c #F9D49A",
"1X c #CCC7BC",
"2X c #ECCEA1",
"3X c #BBBCC2",
"4X c #B8B6C1",
"5X c #C1BEC3",
"6X c #BFC4CA",
"7X c #C4C5CB",
"8X c #C7C7C9",
"9X c #D1CDC8",
"0X c #CCCCD2",
"qX c #D3D3DB",
"wX c #D6D7D9",
"eX c #D3D1CF",
"rX c #E4DBCF",
"tX c #EDE5D8",
"yX c #DCDDE4",
"uX c #DDDFE9",
"iX c #D6D9E1",
"pX c #E0DFE7",
"aX c #DDE0E7",
"sX c #DDE0E9",
"dX c #E2E4EA",
"fX c #EBEBEE",
"gX c #E4E5E8",
"hX c #E9ECF1",
"jX c #EFF0F1",
"kX c #F2F4F5",
"lX c #F4F6F8",
"zX c #EFEFEF",
/* pixels */
"                                                                                                                                ",
"                                                                                                                                ",
"                                                              w e e                                                             ",
"                                                    p + & r j Z x Z k - = =                                                     ",
"                                                p = r  .9.E.4X6X7X7X/.R.q.V & =                                                 ",
"                                              e e ^ J.qXaXyXyXiXqXiXyXyXaX0XD.j @ a           a a a t                           ",
"                                            e & f 8.C.4.@.+.|  .}  .| +.#.4.C.@.% # < 9 S H U P U U G 2 p                       ",
"                        t y 8 6 7 g 7 % ; & # : # $ % y j N L K } ^ V N j d * # # . , W Q ! ! ! ! ! U 3 a                       ",
"                      & < Q ~ ~ ~ R 9 o $ 2 v | 8.K.Q.5X9XwXwXwXuXwXwXwX0X6XW.F.4. .Z 5 o X # # - - &                           ",
"                        = g 0 0 3 $ 2  .9.Q.9XgXfXkXlXlXlXlXlXkXlXkXlXlXkXlXlXkXzXgX0XW.0. .2 & =                               ",
"                          a O # Z 4.~.wXfXkXlXkXkXjXjXdXfXgXgXdXdXdXgXdXdXhXfXfXjXkXlXlXkXyXW.5.Z & q                           ",
"                        t & N A.7XfXlXkXjXfXgXgXuXuXuXuXuXuXuXuXuXuXuXuXsXsXsXsXdXdXdXfXjXkXlXfX8Xf.Z @ e                       ",
"                    p & k 6.OXjXlXjXhXdXaXsXyXuXuXuXuXuXuXuXuXuXuXuXuXuXuXuXuXuXsXsXuXuXsXsXhXhXkXfX1X5.d @ p                   ",
"                  e ; V _.gXkXhXsXsXuXuXsXaXaXuXyXuXuXdXyXiXiXuXsXuXuXuXuXsXuXsXsXsXsXsXsXsXsXsXdXfXjXgXE.V & w                 ",
"                e $ #.8XjXhXsXsXuXuXuXuXuXuXuXuXuXuX7XS.@.$.#.9./.yXyXuXuXuXsXaXaXaXaXaXsXsXsXuXsXsXsXhXzX7X1.& &               ",
"              q ; 3.qXhXdXsXuXuXuXuXuXaXaXaXuXuXyXR.C # a C h & N R.yXdXuXuXuXsXaXaXaXaXaXsXsXsXsXsXsXsXgXhXqX3.% =             ",
"            t $ 3.iXdXsXyXyXyXuXuXuXuXdXuXpXpXdXR.k # +.^.0X4X+.: v ^.sXuXuXuXuXyXsXyXuXdXuXuXuXyXuXiXqXqXsXdXeX@.; e           ",
"          s * Y 6XsXsXqX6X/.7X7X0X0XqXqXiXyXyXqX| . } 7XsXsXsX3XZ @ 3.yXsXsXsXuXsXyXyXiXqX0X0X7X5X3X/.~./.0XsXdX7XY # w         ",
"          e - D.iXsXqX(.D.$.#.4.Z.H._.W./.(.5XJ.- ; G.dXsXsXiX0X3.@ ^ 7XiXqX0X0X7X6X3X/.~.Q.R.G.Z.4.#.$.H.).0XuXsXJ.r ;         ",
"        r & } Q.0XqX/.G.N X ; $ % y j B | 1.q.@.& - W.sXsXsXH.8.4.& v E.(./.~.R.G.C.8.1.| V h 2 $ % $ : V J./.0XdX0X| # a       ",
"        e - C.^./.(.G.N . H d.p.;.E W z 7 8 ; ; & * D.6X0X5X3.- f # k 4.5.$.^ v a $ % 2 7 c G Q ;.d.s.l : ^ R./.qXyX0.; e       ",
"      s @ N E.^.^.J.B # z x.}..X}.{.`.m.v.j.d.<.< # 5.^./.W.} # # # # $ % 3 l G Q ,.u.l.b.P.`.{.{..X].h.7 # ^ R./.0XG.- *       ",
"      a @ #.~.^.J.( o 9 l.'.V.#X-X%X#X#X X.X|.[.U . C _.^.E.V # 8 E <.i.d.c.P.`.].'.{. X XoX#X&X-X%X{.{.d.7 X  .R.^.E.Z X       ",
"      e * q.^.W.| . 7 h.].{.#X-X-X;X>X>X>X-X*X=Xp.- * 8.~._.N # E I.'.{..X.X.XoXoX&X&X-X:X>X>X>X;X;X&X{.}.u.3 $ 1.~.W.} #       ",
"      = - D.^.Q.V . T [.{.oX;X<X,X>X>X,X,X,X>X,X'.R O j C.Q.^ # E ].#X#X&X-X;X;X,X,X,X>X>X>X,X:X>X<X>X-X|.`.F . } ~.~.| X q     ",
"      = y S.^.Q.{ X T `.{..XB.l.p.a.a.u.h.v.V.+X%XM.U $ y @.V : W XX>X;X,X>X>X>X&X|.m.z.N.>.>.u.N.n.V.%X#XP.c . $.~.~.| # q     ",
"      = r D.^.Q.V . R `.B.M.z.d.>.&.T l 1 1 7 F -.j.b.&.7 $ $ & 8 v.>X>X-X>X'.i.R 9 8 5 7 B E -.i.l.n..X+Xm.H . | ~.W.} o       ",
"      = - 9.^.J.j o &.'.V.&X,X<X:X:X%X XB.j.-.W 6 6 M.}.x.=.c - $ i.,X>X>X-XQ o c E i.v.'.+X=X:X,X,X,X-X$X[.R . C Q.R.Z #       ",
"      a ; *.~.A.r , u.].{.&X|.p.%.&.Q ;.u.z.P.'.m.l.@X&X=XXX`.j.&.;.=X-X-X-Xv.x.[.V.v.j.>.<.Q Q -.v.=X>X#X|.-.o k R.S.% &       ",
"      p & B E.5.* 7 c.V.|.I.G 8 +.B j d d 8 l W ,.|.,X>X-X;X&X=X%X@X*X;X-X>X2Xc.Q c 8 5 g j Z | B 6 i.=X%X|.u.$ - S.4.$ e       ",
"        & & 7.$.# H m.'.P.F f K.K. .B B Y  .5.3.< Q =X:X-X>X>X>X-X>X;X;X>X:Xc.1 B 0.+. .B B Y 5.W.X.> h.*X Xx.1 * 3.K $         ",
"        p @ k k : E `.}.i., 6.(.*.D.5.5 5 Y :.1X#.> b.2X;X-X>X>X>X-X>X>X,X#XR 5 Y.J.f.^.Y % 9 Y F.(.g H |.@Xb.l o k - *         ",
"          e # # X &.'.].<.% J.).X.Y.0.; ; B #.9XD.o d.,X>X>X>X;X;X>X>X>X,X{.c N 8Xf.:.f.k # 5 Y A.eX .6 B.=XI.F # # #           ",
"            e ; # c b.|.;.O K.9X:.Y 3.4.c T 6.wX7.o j.,X-X;X>X;X;X>X>X>X,X.XH j 5X!.R N @.3.B R Y.9XY 7 V.=XP.F # & =           ",
"              & # o E |.c.8  .8X).:.f.K.X.3.OX(.x 9 [.,X-X<X>X;X;X-X>X>X,X*X;.O 9.wXK.X.k.D.X.k.eXS.5 E =X=X;.> # q             ",
"                a * O :.@Xi.1 Y F.F.0.7.k.E.J.K 6 h.;X;X-X-X>X<X>X>X-X-X,X,X|.U 2 9.Q.F.0.7.S.J.7.6 W [.2Xu.6 # &               ",
"                    e ; &.`.x.E c x x x c z 9 W l.*X>X-X>X>X>X>X>X-X>X;X>X>X>X}.-.z z c x x x l W >.].+X;.5 + a                 ",
"                      e # c h.XX+Xm.M.n.v.B.{.%X,X,X-X>X,X&X#X.X.X&X>X>X>X>X>X>X*X X`.M.v.v.m.}.=X=Xx.W O &                     ",
"                          @ % H i.m.+X:X<X<X<X>X;X;X;X,X,X;X$X.X.X#X,X,X,X,X>X>X>X,X<X<X<X>X#X[.h.W < &                         ",
"                              & X d W %.u.z.B.}.%X&X;X,X,X<X,X,X>X<X>X,X,X,X,X&X%X|.V.z.N.-.T g X .                             ",
"                                    + @ X % 6 l F R %.,.i.s.p.h.h.h.d.u.i.,.%...G l 6 1 $ # &                                   ",
"                                      @ # $ $ $ 2 3 : : : # $ $ $ $ * $ * # ; : $ # & ; : r                                     ",
"                                  = * u y $ $ K f.D.X.2 * * y - $ h m J J ( ^ M y * # k i * e                                   ",
"                                = 2 n ` n $ $  .F.!.L.7.Z $ # $ $ m ) ) ) ) ) ) J y & h ` / , *                                 ",
"                              & , J ' ` u : $ $ L k.U.U.F.*.f X $ u n ( ) ) ) ) ) M * * ] ' ( 3 &                               ",
"                            * % n ' ' ] r * d y $ k 5.L.T.T.k...8 $ * u m ( ) ) ( C - $ i ' ' ] * &                             ",
"                          t 2 q.H.2.o.M * 2 ( J h * $ B 7.L.T.L.D.#.l $ : r h u r $ o $ $ / q.H.q.- e                           ",
"                          # u H.qXiXG.y : M ` ' ) n 2 # % T 7.L.T.T.K.:.L 2 X . : o H z o N 3X0XS.d & p                         ",
"                        e X $ - V 5.#.; @ 5 d u y 2 * * * # - N :.L.OX9X1X!.7.L 5 $ > < $ - $.C - % ; &                         ",
"                      = ; G =.E l % & # 8 1 > > o o : # # ; # # $ l *.F.1XtXtX9X!.0.R g * ; * x Q ,...5 &                       ",
"                    p & R b.b.b.x.X.& 4 e.y.w.t.t.I I I D D D S S 0 > > 9 *.K.OXrXtXrX!.d # 8 s.v.M.[.%.o e                     ",
"                    w # a.2XoX'.m.Q X 4 ! w.w.w.r.y.y.y.g.g.g.g.g.r.e.U 6 o # f Y :.F.Q.B : 3 l.#X&X*X-.o w                     ",
"                      ; H x.%X:X,Xs.* # $ $ , , < 6 6 0 A A A A S 0 0 0 > $ $ # # : $ y r * 3 P.&XV.a.3 &                       ",
"                      w & 2 R i.j.G # 2 ] ( m J M M M i i u d y - u u l h M b n m J J M u % O W R l % =                         ",
"                          & o $ $ # $ m ' [ ' o.o.[ ' ' ' ` b - = M _ o.' [ o.o.[ o.o.o.O.b $ # @ w                             ",
"                          e $ % # # * u n m J ( ( ) ) _ J u $ ; ; $ 2 J ) ) ) ) ( ] J n M i $ # +                               ",
"                                  w w + # # $ $ * $ % % $ # ; t   e $ $ * * , * - # $ # & e t                                   ",
"                                        + # $ $ ; # # $ # * &     p # o # ; # * # # # @                                         ",
"                                          = $ 1 3 3 , 3 % & q       & & , 3 3 1 < , # w                                         ",
"                                          q $ 6 A A 0 4 $ +         w ; , 4 A A 0 > #                                           ",
"                                            & $ , , , : =             q * $ > > , # +                                           ",
"                                              e e & e                       q & +                                               ",
"                                                                                                                                ",
"                                                                                                                                "
};
