/* XPM */
static char *_f917937b051436af35d9b33970c1125OaQJzXBezxBVwls5[] = {
/* columns rows colors chars-per-pixel */
"64 64 183 2 ",
"   c None",
".  c #35374F",
"X  c #373A4C",
"o  c #353752",
"O  c #393654",
"+  c #363A55",
"@  c #393A55",
"#  c #373B5B",
"$  c #393B5C",
"%  c #363C63",
"&  c #3A3D63",
"*  c #363E6B",
"=  c #3B3E6B",
"-  c #363E72",
";  c #3C3F73",
":  c #3A3F79",
">  c #403B66",
",  c #403F71",
"<  c #3A405E",
"1  c #354066",
"2  c #3B4165",
"3  c #37406B",
"4  c #3B416D",
"5  c #374173",
"6  c #3C4374",
"7  c #3C4974",
"8  c #3D447B",
"9  c #3E497C",
"0  c #404575",
"q  c #414A75",
"w  c #41467C",
"e  c #434A7C",
"r  c #475179",
"t  c #485079",
"y  c #3E4682",
"u  c #3F4A81",
"i  c #414682",
"p  c #424B84",
"a  c #41478B",
"s  c #434B8A",
"d  c #465185",
"f  c #4B5482",
"g  c #45518B",
"h  c #4A538C",
"j  c #4D5A8C",
"k  c #535C87",
"l  c #525B8C",
"z  c #475194",
"x  c #4A5492",
"c  c #4D5A95",
"v  c #4D569A",
"b  c #4E5A9A",
"n  c #555D93",
"m  c #525C9C",
"M  c #59618A",
"N  c #5B6494",
"B  c #55609E",
"V  c #5F6A9E",
"C  c #59619A",
"Z  c #616B93",
"A  c #69739E",
"S  c #535DA4",
"D  c #555EA9",
"F  c #5661A3",
"G  c #5B64A1",
"H  c #5764AB",
"J  c #5B66AA",
"K  c #5E6BAD",
"L  c #5B69A3",
"P  c #5C66B3",
"I  c #5D6AB4",
"U  c #5F67BD",
"Y  c #5F6DBD",
"T  c #626CAC",
"R  c #626CA4",
"E  c #6B73A2",
"W  c #6E79A5",
"Q  c #6D78A8",
"!  c #727AA5",
"~  c #7077AF",
"^  c #737CAD",
"/  c #626DB3",
"(  c #616DBC",
")  c #6471B4",
"_  c #6E79B1",
"`  c #6271BD",
"'  c #6A74BB",
"]  c #6E79BD",
"[  c #6B76B5",
"{  c #727CB4",
"}  c #5F6DC1",
"|  c #636FC2",
" . c #6372C4",
".. c #6B77C6",
"X. c #6C79C2",
"o. c #6573C9",
"O. c #6B7ACB",
"+. c #6A77CC",
"@. c #747FCD",
"#. c #717CC6",
"$. c #6C7CD3",
"%. c #6F7FDA",
"&. c #707ED4",
"*. c #727FD9",
"=. c #7780AD",
"-. c #7A81AD",
";. c #7A85B3",
":. c #7A87BF",
">. c #7481C7",
",. c #7581CD",
"<. c #7E85CC",
"1. c #6F81D5",
"2. c #7381D5",
"3. c #7A86D4",
"4. c #7C8AD5",
"5. c #7483DB",
"6. c #7986DA",
"7. c #7688DD",
"8. c #7C8ADC",
"9. c #7786E1",
"0. c #7689E1",
"q. c #7C8CE3",
"w. c #7F8FE8",
"e. c #7A85E3",
"r. c #7F91E2",
"t. c #7E90E9",
"y. c #848CBD",
"u. c #848CC8",
"i. c #8B95C4",
"p. c #8F99CB",
"a. c #8B94CD",
"s. c #919AC6",
"d. c #929CCC",
"f. c #818FDD",
"g. c #8C96D2",
"h. c #949CD3",
"j. c #949EDB",
"k. c #98A0D2",
"l. c #95A0DB",
"z. c #9AA3DA",
"x. c #A0ABD5",
"c. c #A2ABDC",
"v. c #A7B1DC",
"b. c #808DE2",
"n. c #8393E4",
"m. c #8495EC",
"M. c #8996EB",
"N. c #8C9BEC",
"B. c #8E96E2",
"V. c #9299E4",
"C. c #8697F1",
"Z. c #8993F1",
"A. c #8599F2",
"S. c #8B9AF2",
"D. c #95A3EC",
"F. c #9EA5EF",
"G. c #9BA6E5",
"H. c #95A4F2",
"J. c #9AA6F3",
"K. c #9CAAF4",
"L. c #A7AEE2",
"P. c #A1ABEC",
"I. c #ACB5E4",
"U. c #A6B1EF",
"Y. c #ACB4EB",
"T. c #B3BCED",
"R. c #B2BAE3",
"E. c #A2ADF5",
"W. c #A4B1F4",
"Q. c #ACB5F4",
"!. c #AFB8F2",
"~. c #ABB7F8",
"^. c #AEB9F9",
"/. c #B4BBF5",
"(. c #B3BBF4",
"). c #B7BFF8",
"_. c #B7C1F6",
"`. c #BBC3F4",
"'. c #BFC9F7",
"]. c #BBC4FA",
"[. c #BFC8FA",
"{. c #C2CBF7",
"}. c #C3CCFA",
/* pixels */
"                                                                                                                                ",
"                                                                                                                                ",
"                                              O O @ @ @ O @ @                                                                   ",
"                                          @ $ < $ & # & & $ $ $ @                                                               ",
"                                        $ $ < 2 4 ; 6 4 6 4 4 & % # #                                                           ",
"                                    @ $ $ $ 2 4 8 w y i a p w 8 4 & % $                                                         ",
"                                    @ # $ = 4 8 p a i w w i w i w 6 4 % @                                                       ",
"                                  O @ @ % 4 8 i a a 9 : = % 6 0 p e 0 2 $                                                       ",
"                                . O # % = 0 w a a a ; 0 = % = , e p p q = %                                                     ",
"                                O $ & = ; 8 y a p 6 e E j w n 0 6 p p a w ;                                                     ",
"                              o $ & = , w i a 8 * d i.c.n s ] S 6 4 e s s 0 &                                                   ",
"                            o + % = 0 0 w p w ; f u.).c.j h &.O.b 6 6 p s w ,                                                   ",
"                            @ @ & 0 , : i p 0 t y./.).j.j h 3.6...B 6 6 p 9 6 &                                                 ",
"                          @ @ & & ; ; w p ; t y.T.`./.j.x h 3.b.5.` c 5 7 7 7 4 &                                               ",
"                          % # & = 6 : 8 ; q ^ R.[.(./.j.j h 8.m.9.%.( c 7 7 7 8 6 &                                             ",
"                        + @ # = 6 6 w = = ! I.{.).(./.h.j h 4.m.9.%.$.| b 7 6 6 8 = $                                           ",
"                        X @ # 2 6 8 6 4 Z v.{.{.).(.!.d.f h u.C.t.5.1.+. .b 7 6 i , 4 @                                         ",
"                        + $ & ; 8 6 % k x.{.'.[./.Q.Q.a.d h f.Z.w.9.1.$.o.U v 8 : i 0 & @                                       ",
"                      O @ & 6 w 8 4 k s._.!.(._././.E.u.s h f.S.t.9.1.$.o.o.( x 8 8 q = &                                       ",
"                      $ 2 4 6 0 4 4 A v.P.V.J.~.Q.^.E.u.s x f.Z.t.7.1.O.X.` ` G 7 = 0 8 & $                                     ",
"                      $ = , 0 w 4 4 t n C ' u.B.J.E.H.>.u g 8.A.0.1.+. .I F x w 6 = 6 0 2 @                                     ",
"                      $ & , w w w > k E l d s D ..8.q.] u d 4.7.O.K b z a 9 s p 8 4 6 8 4 $                                     ",
"                      @ & 0 0 p w = E R.I.s.Q j u b I T d 9 L F u 7 9 u v H P D a = q w = %                                     ",
"                      O $ & 0 i w 4 k c.}.}.`.x.;.N r 7 5 5 9 p c m H } | | } D y 6 8 i 0 &                                     ",
"                        # & 4 w p 4 q p.[.'.]._./.I.i.W f 7 K 3.7.1.+.o.o.| | v 8 6 9 i ; &                                     ",
"                          $ & 4 w 6 4 ! T.[.).^.P.K.W.G.L 8 ' Z.0.2.$. .| | ( S 6 ; y 8 6 &                                     ",
"                          $ @ & 0 8 4 M v.'.(.Q.J.A.S.N./ 5 K r.5.2.+. .| | U z 6 : 8 w ; &                                     ",
"                            @ & 4 7 5 r i.`.(.Q.J.A.A.n.K 8 G 4.5.2.O.o.| | ( z 8 : i w 4 #                                     ",
"                              & 4 w 4 5 -.T.T.Q.J.A.A.f.K 8 B ,.3.*.&.+.| | / z 8 8 y 8 4 #                                     ",
"                              & 4 0 8 * N c.(.Q.K.A.A.n.K 5 m ,.*.*.*.&.o.| P z 5 8 9 8 & $                                     ",
"                              & 0 0 0 6 r p._.!.K.A.t.r.) 8 b >.6.*.*.&...| J h 6 8 w 0 &                                       ",
"                              & 4 0 q w q =.T.^.K.m.7.7.] 7 x 4.b.e.*.&.o.| D i 6 9 w 4 &                                       ",
"                              & = 0 6 p 6 n c./.W.N.0.0...7 p 3.M.9.5.$.o.} F u 6 u 9 ; #                                       ",
"                                2 6 8 0 6 e y.!.W.N.r.7...p u ,.S.e.2.&. .` m 9 6 u 8 ; #                                       ",
"                                $ 4 6 8 6 6 E Y.~.D.r.7.O.h y ..S.q.5.&.o.} m 9 6 9 8 = #                                       ",
"                                  & 6 6 8 * f h.~.K.t.7.,.c 5 ] M.w.5.$. .` v 6 8 i 6 =                                         ",
"                                  $ 4 0 8 8 6 ~ U.W.N.0.&.m 5 [ m.w.7.+.} I z 5 8 w 6 &                                         ",
"                                    & 0 i w - h p.W.H.t.5.F 8 K n.0.1.o.} I z 5 8 i 4 @                                         ",
"                                    $ 0 i i 8 5 =.W.K.r.8.K 8 B b.5.$. .} P g - 9 i 4 @                                         ",
"                                      > 8 7 7 3 k d.W.N.m.` 8 j n.9.$. .} H 9 5 8 9 4 @                                         ",
"                                      $ 4 0 4 & 4 W U.H.m...9 d f.7.1. .| S 8 4 8 q & +                                         ",
"                                        & 0 6 4 1 k l.H.C.,.s u 6.e.&.o.} S 8 4 4 2 #                                           ",
"                                          & 4 4 4 7 _ J.S.6.s p 3.7.1.o./ m 7 3 2 < <                                           ",
"                                          $ 4 6 1 1 l l.H.3.c 7 ] 8.2.../ x 7 3 2 $ #                                           ",
"                                            & 4 0 2 7 <.K.b.F 5 ) n.&.O./ h 4 4 2 < @                                           ",
"                                            # % 6 6 2 Z D.N.J 5 J 8.6.../ s 3 4 2 <                                             ",
"                                              & = 4 4 f g.J.K 6 F 4.*.` K s * 4 2 <                                             ",
"                                                = 6 6 4 ;.P._ 6 j 3.2.` m 9 = 8 4 $                                             ",
"                                                & , ; * Z L.i.6 p >.2.` b 6 6 w 6                                               ",
"                                                  & 6 * f k.z.d q ] 6.` x 6 0 w ;                                               ",
"                                                  # = = 7 y.I.N 6 ) 6.Y p * w 0 =                                               ",
"                                                    4 6 4 A v.E - J 6.` u 4 w 4                                                 ",
"                                                    2 0 & r p.{ 5 B 4.I y 6 6 &                                                 ",
"                                                    2 4 3 6 { { 6 c >.J 8 6 4                                                   ",
"                                                      4 0 3 G ' 8 g ] b : , >                                                   ",
"                                                      & 4 4 h / p u ) j = >                                                     ",
"                                                        2 2 8 C d 8 N q # O                                                     ",
"                                                        < 1 % e 8 * q 2 +                                                       ",
"                                                              # & # @ +                                                         ",
"                                                                                                                                ",
"                                                                                                                                ",
"                                                                                                                                ",
"                                                                                                                                ",
"                                                                                                                                "
};
