/* XPM */
static char *_420c1abc92549afb1d6e97fde242ec44hjRRMpPcno9sbas[] = {
/* columns rows colors chars-per-pixel */
"64 64 185 2 ",
"   c None",
".  c #28281F",
"X  c #2F2E24",
"o  c #312F24",
"O  c #3A2823",
"+  c #323126",
"@  c #35342A",
"#  c #38372D",
"$  c #3B3A2D",
"%  c #37392C",
"&  c #393730",
"*  c #3C3C31",
"=  c #462423",
"-  c #4A2827",
";  c #522625",
":  c #5F2725",
">  c #5D2925",
",  c #5D2C2E",
"<  c #522829",
"1  c #42322A",
"2  c #4F2D33",
"3  c #403E32",
"4  c #5B3339",
"5  c #5B3B33",
"6  c #602725",
"7  c #632A26",
"8  c #692B26",
"9  c #612728",
"0  c #632C2C",
"q  c #732D28",
"w  c #68352E",
"e  c #7C342C",
"r  c #76302C",
"t  c #672F30",
"y  c #653235",
"u  c #6A3035",
"i  c #653B32",
"p  c #63333A",
"a  c #693238",
"s  c #7C3B33",
"d  c #733B33",
"f  c #3F4033",
"g  c #444335",
"h  c #454439",
"j  c #48473B",
"k  c #4B4A3C",
"l  c #4A4837",
"z  c #5A463A",
"x  c #514F3F",
"c  c #604036",
"v  c #654038",
"b  c #6F4237",
"n  c #7C4037",
"m  c #724238",
"M  c #4E4D41",
"N  c #504E42",
"B  c #4F5042",
"V  c #535344",
"C  c #5A5345",
"Z  c #5B5947",
"A  c #565549",
"S  c #58574A",
"D  c #5D5C4D",
"F  c #5F5E50",
"G  c #6F4C42",
"H  c #794E46",
"J  c #605F4F",
"K  c #6B574C",
"L  c #605F51",
"P  c #685F51",
"I  c #7D5B51",
"U  c #5F604F",
"Y  c #62614F",
"T  c #646353",
"R  c #686756",
"E  c #676857",
"W  c #6A6957",
"Q  c #676659",
"!  c #696759",
"~  c #6D6C5A",
"^  c #706F5D",
"/  c #796D5E",
"(  c #72715E",
")  c #6F6D60",
"_  c #706F60",
"`  c #6F7060",
"'  c #757462",
"]  c #787764",
"[  c #777865",
"{  c #7A7965",
"}  c #7D7C6B",
"|  c #777569",
" . c #7D7F70",
".. c #87362E",
"X. c #92372F",
"o. c #833C35",
"O. c #8C3C34",
"+. c #903731",
"@. c #943C33",
"#. c #9B3C33",
"$. c #A53D35",
"%. c #A93B35",
"&. c #A73F38",
"*. c #A83F39",
"=. c #8F4137",
"-. c #86493F",
";. c #85443B",
":. c #95423B",
">. c #9B443D",
",. c #A4453C",
"<. c #A8453D",
"1. c #8D4C43",
"2. c #854C41",
"3. c #934C42",
"4. c #9B4B44",
"5. c #9D4640",
"6. c #8D5246",
"7. c #895C4E",
"8. c #865144",
"9. c #90544A",
"0. c #805D53",
"q. c #A54C43",
"w. c #AA4D44",
"e. c #AC4E48",
"r. c #A34741",
"t. c #A75146",
"y. c #A7524A",
"u. c #AA534A",
"i. c #AD594E",
"p. c #B5554F",
"a. c #B7584E",
"s. c #B75651",
"d. c #B35E53",
"f. c #BA5A55",
"g. c #B85752",
"h. c #8A6056",
"j. c #9A695E",
"k. c #A7655C",
"l. c #B86157",
"z. c #B96157",
"x. c #8C6F62",
"c. c #807F6D",
"v. c #937B6C",
"b. c #9C7B6C",
"n. c #9B7061",
"m. c #817F72",
"M. c #AD6A61",
"N. c #A47264",
"B. c #A47569",
"V. c #A37C6C",
"C. c #A87E6F",
"Z. c #AF7E71",
"A. c #C35F5A",
"S. c #7F806F",
"D. c #83826E",
"F. c #868573",
"G. c #898673",
"H. c #8B8A75",
"J. c #898778",
"K. c #8D8C79",
"L. c #9C8472",
"P. c #938B77",
"I. c #9D8A75",
"U. c #918F7B",
"Y. c #9C8E7A",
"T. c #8F907F",
"R. c #93927C",
"E. c #9A947E",
"W. c #96987F",
"Q. c #98987F",
"!. c #A3826F",
"~. c #A48472",
"^. c #A18A74",
"/. c #AA8272",
"(. c #A4947E",
"). c #969681",
"_. c #9A9681",
"`. c #9A9A83",
"'. c #9D9C88",
"]. c #A49D83",
"[. c #A89F86",
"{. c #A09F88",
"}. c #A5A187",
"|. c #A2A189",
" X c #A8A68E",
/* pixels */
"                                                                                                                                ",
"                                                                                                                                ",
"                                                                                                                                ",
"                                                                                                                                ",
"                                                                                                                                ",
"                                                                                                                                ",
"                                                                                                                                ",
"                                                                                                                                ",
"                                                                              `.|.W.                                            ",
"                                                                          Q.}.`.F.S.'                                           ",
"                                                                        Q.Q.D./ { / [ `                                         ",
"                                                                    W.'.D.D.S.S.{ [ [ [ (                                       ",
"                                                                W.W.R.D.S.( S.^ { { ( ( S.~                                     ",
"                                                            `.W.K.D.S.( S.( ] S.~ ( ^ ~ S.(                                     ",
"                                                      S.P.Q.Q.D.{ / S.( ( ( ( ( W ^ ~ ~ ~ ( ~                                   ",
"                                                  S.T.'.Q.P.D.( { { ( S.S.( W W W T ~ ~ W ( (                                   ",
"                                              F.R.`.`.U.H.c.S.S.S.( S.S.( ( ~ Y ^ Y W ~ ( W ( ^                                 ",
"                                          F.W.`.Q.Q.R.{ ( / / S.( S.( / ( ( ^ W R W Y W W ~ ~ ( `                               ",
"                                      ' h ( `.W.E.R.D.' S.( ( ( ( D.S.( ( ( ( ( Y ~ T R W ~ ~ ^ ' ~                             ",
"                                  H.).R.{ g { `.H.c.{ / ( ~ ~ ^ W ^ ( S.( ( ( ( ~ Y ^ Y W W ~ ~ ~ ( `                           ",
"                              G.J.{ D g Z W j H.F.] ] ] W ^ W W W ~ ( ( S.~ ~ ( ^ R R W Y ^ R ^ ( W ~ B                         ",
"                        F.H.} D l j S W g W Z S K.{ ] ' R ^ ^ ^ W ( ~ W ( ( W ( ( ( Y W R R W R ~ W T Z                         ",
"                    `.R.[ V f V ' m.K.R.} g ] l ~ D.] ( ^ R _ W ^ ~ ( W W ( ( R ( ^ ^ Y W T R W T T Y W D                       ",
"                ).H.E l g S [ H.K.R.U.} _ V N _ g } } ' / R ^ ' W W W ( ~ S./ W W W W W J W Y J W Y U T ` S                     ",
"             .F.` * $ W D.K.R.R.F.Q k g * M k D T B F.[ ' _ ! ^ ( ^ W W ( S.( W R ~ Y ~ T Y ~ J T Q J D Q ) M                   ",
"                    @ A F.).`.} $ o S m.| 3 T * W M L } ] ' / R ( ^ W W W ~ S.W Y R ~ T ~ Y R R Y ~ T T T ~ ~                   ",
"                    L S g S { F.! M g S ' N N L h W g ' } [ / ^ W ( W W W W W W T Y W T R T Y R Y T Q T D L T M                 ",
"                    V E _ D k l P  .| S h $ o D V x D k { ' ^ ~ W W ( W W W Y W W Y T ~ Y T J T L D D T D j $ @                 ",
"                      # j ) F.] V g W K.F.W k # Q k S V A { ' ~ W W W ( Y W W Y ~ T Y T L D D F L F S M $ % *                   ",
"                      Q Q h k ( H.' l k ~ H.K.{ D.c.h L l Q } ~ Y W Y W W Y ^ Y T Q D J D D F F D V * @ * *                     ",
"                      } '.H.Y g x ' c.Q k l V [ R.`.[ g D g [ | W Y ^ Y ^ Y W Y D T J D F J F V f @ $ # @                       ",
"                      } |.'._.D.g @ k ' F.} F h k ~ K.Q h C l } W Y W W Y W Y Y J J D Y D A g % $ $ % f                         ",
"                      }  X].Q.K.M S D g N _ J.J.) k j E x x x V D.Y Z ~ W Y Y Y D F D S h @ # & @ f A T                         ",
"                      F.|.Q.E.P.M Q `.F.T h h T S.H.' k 3 + S k Y D.Y Y Y Y Z Y F A h % # $ @ * B D L `                         ",
"                      G.|.E.E.P.C K Y.Y.).m.Q j $ V ` } T $ @ L l ^ ( Y U J Z x g # % * + $ # B U D Y ~                         ",
"                      K.|.`.E.b.H i 7.j.b.v.v.m.T # g g D ~ S l W l ^ R S l f $ * * % & * * * S L D U T                         ",
"                      R.}.E.L.N.1.s o.o.9.j.N.v./ k H.[ A g M $ D ^ 3 j $ 3 h g % * M F V * * F T D D U                         ",
"                      E.}.Y.!.N.4.>.f.w.O.o.1.k.h.z R.).K.| S # o _ h 3 N h # $ k S L T S * * F Y D D T                         ",
"                      `.}.^./.N.3.>.g.e.r.>.+...s v I.).H.F.J.V @ $ @ 3 @ o $ Z F F F B % * * Q Q D D Y                         ",
"                      '.(.^.!.N.3.5.f.q.>.,.$.$.O.d V.E.G.F.J.S N g o 3 N h g ~ F M * f M * * T ~ D Z Y                         ",
"                      {.].^.b.N.3.>.f.q.,.,.&.%.&.o.B.P.P.F.F.S S ^ S D F j g S $ $ x T F & * T ( D D Y S                       ",
"                      {.}.~.!.k.3.:.f.q.,.,.&.%.&.o.B.E.P.F.H.A S ! J J D k o $ k S J W T * * E ~ U D Q F                       ",
"                      '.}.~.!.N.3.3.g.q.,.<.$.%.*.o.V.E.R.H.F.Z N ! D D D k $ S D J D ~ T * & T ( Y D ~ T                       ",
"                      R.].!./.N.4.:.g.q.,.<.$.%.&.o.V.Y.R.D.F.D N Q D D U k $ D D D J ( E & & Q ` U F ' T                       ",
"                      P.(.!.V.M.4.>.a.q.,.<.$.%.&.n b.Y.U.G.F.F N R D D J j $ D D F Y ( W $ & T ~ U U ( Q                       ",
"                      F.(.!.N.M.4.>.a.w.,.<.%.%.&.n !.I.U.F.G.F k R D J J k $ D D D Y [ ~ % + T ~ U D ~ ~                       ",
"                      } (.!.V.M.4.,.p.t.,.,.$.%.#.n V.^.U.G.J.F h P J J J k $ Z D D Y ( ~ % + T ( D D T `                       ",
"                      Z v.~.N.k.5.r.p.r.,.$.$.%.@.;.Z.^.R.G.F.D h J Z J J x * Z J D W { ~ % @ T [ T D Z k @                     ",
"                      C z G 7.k.5.r.u.#.#.#.,.$.X.-./.L.E.H.F.V N R Z J J N * S D D W { Q & & T Q S g @ * @                     ",
"                      R x.I b o.O.:.O.+.,.w.q.<.+.-.V.L.E.K.F.M A R J D J N * S D D ` { E $ & M h # * h *                       ",
"                      O 5 0.j.6.s ..>.y.w.w.<.,.@.-.Z.L.R.K.F.h J T J J J N & S D Y ' [ T + X @ * h f #                         ",
"                        = - i 2.o.y.f.i.i.u.t.q.=.3./.I.R.F.{ g J J D D L V * S D Y E L h o + + & +                             ",
"                        - < > 6 e w.A.z.l.i.i.y.=.8./.I.R.H.{ g J D D D U V % S D S j @ X                                       ",
"                        - , > : 7 ..@.s.l.l.d.i.=.8.!.^.H.H.{ g D J D F L S % B k *                                             ",
"                          y t 0 9 8 8 e O.t.d.l.>.m x.G.H.F.} g D L F S M f o #                                                 ",
"                          p u u 0 0 6 > 7 q O.y.-.i c C ~ S.S.g S F M * * f +                                                   ",
"                            4 p u y 0 0 6 6 8 r q i K N g g S * g * % M M g                                                     ",
"                                4 p a u 0 6 > > ; - 1 k N M j + + g M j &                                                       ",
"                                    4 p y y t < =         * M & * h                                                             ",
"                                          4 4 2                                                                                 ",
"                                                                                                                                ",
"                                                                                                                                ",
"                                                                                                                                ",
"                                                                                                                                "
};
