/* XPM */
static char *_789c69417574e68f4993a8ca3883a3c19eGCHRAbyiBVorN[] = {
/* columns rows colors chars-per-pixel */
"68 64 24 1 ",
"  c #928177",
". c #96857D",
"X c #98877F",
"o c #97887F",
"O c #99887F",
"+ c #9B8780",
"@ c #978980",
"# c #9D8C83",
"$ c #9F9087",
"% c #A08E86",
"& c #A28F88",
"* c #A19187",
"= c #A4938A",
"- c #A9978E",
"; c #A7988F",
": c #AA988F",
"> c #AA9790",
", c #AC9B92",
"< c #B19E96",
"1 c #B2A197",
"2 c #B4A39B",
"3 c #B8A59D",
"4 c #B9A89F",
"5 c #BAA9A1",
/* pixels */
"OXX#:=%###%##%##&=&#@+>2,&>2::22,OOOO:OO#$>>$#$+$$=$#$$###$##+@@XXXO",
"####%%+XX#O%O##%><<>##-2,$-,-*,1:OOOOO:O##$$##+$+##+#$$$##$###@@XOO%",
"##=,,&OX.XOOO##%<53<=##=-#$$O**-OO O:OOO$##+#$+++$$##=<,>&#+##+#=-&&",
"#*13<<%...OOO##*234<=##$#$##**O*OO OOO=O###$++$+$&=$$;52<&@$##+=3<-O",
"#=2223&. OOO##O&,<3<**%##&***#OOO...OO=O$@$+@@++#><;;,22<##&###=><O&",
"%=243<=OOO&%&%%O&->&####$-,,*#OOO...OOO:;&&$+++@@>2<,552<=#####&&&&O",
"#%:2<:-:OO-,<,&OO%%%###*=<521*OOO...OO*12,;&+@++++&<55<,&######$&OO+",
"###=&%%:**<333,&%%####O#=2442*#$O..ooO*4552=#++++@#>55<&####$###&OO+",
"$###O$##O-1333:O&%+####O*<33<%OOOOOO++=252<=$######=<<>#####&##&-OO-",
"#$######*O<443:*##&++%##O=<>&O%%OO$O##&<22,$####++@@==&+######&+O-OO",
"#$#@OOO#O*=<,:O*####++@+O=&%O%%OO$O*#+#&--=$$#$+#$#+###+###+%+##OOOO",
"####ooX#*OOOO&OO####+..+O*%%O%O%##*O@@+###$##$#$><-$#$%####&%%+%OO-O",
"@#$@XXX#O%O%O&&O++#+XXX+O%O%O%%X$*=#. .####$$##$,<>$+%+#%+&&%&%%OOOO",
"@##@OO+#%%OO*,,&@..#OX+O%O..%&%%#:1=...###$$###$$=$#%&&#+%&><,&+OOOO",
"#@#@O#O#O%O&O-,O...#####%O..%&>>%:1=#..#$####+######%&&%%+><33>%O<&+",
"####%##OOO%=%%&O..X+X#O%O%O%%>3>*#$######$&#+++#####%+++%%>353>%O-&+",
"########..%,=##O#.#+#O##++++%&>&$#######&><>+.+#&=&++ @@@#=232>+ ++ ",
"$###$#@.X.#=&######O####+++%&+&+$#$#$&#$>55<%.+&,<-#+  +++#===&+...+",
"#####$+.X.O######O####O#&>&%+&++@$$$####>25,#X@$>5>#@  ++$+#+&#&++++",
"#$##=,=##O####XO########><>&+++++@##$##+=>,=++@$->=#+@@@$+$$&#&+%O++",
"$#++$>=##O%#O#O%*=*#####&=&%++++++$####@####@####$###@#####+&+&#%%&&",
"#+@ .#$##OO###*:,1:#####+#&%++.@+$####@+@#$#####$#####+###&&+&#&&&>&",
"##@..+##%#*O%O*1541*####@+###&$@@$###@+@@########+####+###+&&>>++&&&",
"###@#+###O*O*O*1331*#OO#####;<<;###@############$$###--###+%&,<=+%%%",
"$#####$---##*O=121,$OOO####$,52,#@@@+#=+++#####$<,=-<2<=#####&>>&%+%",
",=####=<25>#OO****$O...O####;52,#@@+ #;+.@###++=2<;<552-&##&%+&<>%++",
">=###=>135,#O%%#O$OO ..X#$##=;,&+@@+ @#+++##@X##===,552=####+%&>%+++",
"#####$=134,##%##OOOO...X@#$##$$#$+><$+@$+###+@##$$#;<,,&###+++%%+. .",
"#######:31&#####*##OOOX########$&&<2=#+$############===$##++++++. + ",
"#######%<,#########%##O#$#@#######==#++$####OO#O##########+++%%%+.++",
"########==######%###############$##$#$;>##########oO#&=&&$+&,<&%%+%O",
"##+########+###%#*#O##########$####$$;22=####O#O####;<<>&#%&<3&%%X%O",
"OXOOOOOOO&O%%%###@++++#@##=:*#O$#+X##&,,$$##@@@@@##=<55<;##&=>&&%+%%",
"OXOO-O::%O:11:=#++@@.@++##,1:$$$#+####=&#$#@@@ @###><552;#$##&%##%+%",
"OOO*OOOOO-2242:#+@ + +#+@#=:*#$*&###########@ @@###=<55<=$#####+####",
"O%O=O-O:O*2222-#+@@ @+#$##****;,-$####%##$@@@@@@###&;2<>$$$#########",
"O%%%OOOOOO4322:##+@++#->=##=;,23:*O*O#=###@@@@#@####&=-#############",
"%OXX:O:OO=:,>:%##$###$;;$#=<3321:**O##*#$@##$@$##$&###&#$#+@##&&####",
"&&&&OOO:OOOOX.##$#$-$##$##>233<=O*O#O*####@#$@#$$$####$$##+++#+#XXO#",
"&><<3OOOOOO  .@##$&<,&#$##-133>#OO*O%O##$###@$#$#########@..@+##X.&<",
">333<OOO#+#. @+@$#$;;$$$##$><,=#***O########@#$#$########+..+###XO23",
">233<OO>###++#+##$#$=$$####$$$$#O***&#$#####$$#$###@@####@+@@=##X%23",
"><333OOO+$&#+@#@$##@#@@##############%#%>,=;;&$#$#@@@@#####+-,=#O%,3",
"<33<<>OO$;;=#####$##@@@@#######+OO#*###=<52<<;&$##+@ @@####&$&##%O%-",
"<333::OO$,2;$#$@$#&@@@.@.#####...O######-,55<<=#$#@@@@@#$#######*OOO",
"33<3OO>O&,<$@###@$##@@@.@+####+..O#####X#$<<55;+@@@@@@@#####$##$*O%%",
"<33<>OOO#==$####$$##@..@X######+#X######@#>55<=++@@+#@#@@###$#$$O**O",
"><3<OO>O@&;$##$@#$$@@@..@##############X+@$==$#@@@#####@#$###$$@*O*O",
"O>&&%O%%O&=#$$##$o$$oooO#o$#####$##+##++.@####+@++@++###@#$#@$@$=%O=",
"OOOO%%%O#%#$$###$Oooo$o#$#######=$#####@@#+#+###+@##+$$##@@$$$@$*OO:",
"&O&O%OO%###*$##$-$$OOoOO######$=,>####++##@######$##+$+$$$###$@@X %<",
"O&OOOO%O####@@;221**$$$$O######=>>$$##$+####@#####+#+$$=;=###@@@..O<",
"<>O+++%%O$*O=$:331-O###@#$=$$##==$##+##$##+#+###$+#$+$$$$$@+##@@++#:",
"<>O+ +O%$O,12,,132*O@+#+#,21;#$###$$$$#++####+##$$;;=$$#++++###@++##",
"OOOOOOOOO=1241;,<=#X..++=233,$###+$<,&##+@###$###+$<2&+#$>;@@@@##%##",
"OOOOOOO&O$1421=**%##.  +=123,$###+$>>+@#$#######++#>2=$#=5<>$@@@#+%#",
"$O$OOOO:$O1111OO####@  #$<2<>####=;;=@+;<;&$$$+@@#;<<&##&,,<>+@+##++",
"$$$$O;OOO$O::OOO$+####+#+&==$###&<22,&$252,;;$$+.&><>&##$&&==@ .+%&%",
"O===$OOOO=OO:OO:+$##############=2525==5552<<=$+@@#&$@##$##$#+ @&>>-",
"O$==O$O;OOO=OOOO$#############&#=222<=&>2<;=;&+$#+@####&@$####@=<3<<",
"OO$$OO;OO:OOOOOO#$##$+###$##$###$><<=$#$=&$#$############+@+##&>233<",
"$$$$:OOOOOOOO:O1&#&&#$+##++######$&=#############+#######+####=,323<",
"#$O$:OOOO:::1O:,;$=,=$+#++@#######+#$##$####$#@############&#=22431:",
"####OO:OO1441:OO&#;<>#@ @+@+$$$$+$##++###@##$#$&==$+#########=2544:*"
};
