/* XPM */
static char *dc6d9692d09b497281d077e812d5855918rp5McKXJaMsdOo[] = {
/* columns rows colors chars-per-pixel */
"64 64 58 1 ",
"  c #DBE2EE",
". c #DCE3EF",
"X c #DDE4F0",
"o c #D8DFEC",
"O c #D8DFEB",
"+ c #D7DEEB",
"@ c #D9E0EC",
"# c #D7DEEA",
"$ c #D5DCE8",
"% c #D6DDE9",
"& c #D9DFEC",
"* c #DAE1ED",
"= c #DAE1EE",
"- c #D9DFEB",
"; c #D8DEEB",
": c #D4DBE7",
"> c #DBE1EE",
", c #DEE4F0",
"< c #D7DDE9",
"1 c #D9E0ED",
"2 c #DEE5F1",
"3 c #DDE3EF",
"4 c #DDE3F0",
"5 c #DCE2EF",
"6 c #DEE4F1",
"7 c #DBE2EF",
"8 c #D7DDEA",
"9 c #DAE0ED",
"0 c #D6DCE9",
"q c #DDE4F1",
"w c #D8DEEA",
"e c #DCE2EE",
"r c #DCE3F0",
"t c #DAE0EC",
"y c #D3DAE6",
"u c #D5DCE9",
"i c #D4DAE7",
"p c #D2D9E5",
"a c #D6DDEA",
"s c #D8DFEA",
"d c #DBE1ED",
"f c #D5DBE8",
"g c #D3D9E6",
"h c #D4DBE8",
"j c #DEE5F2",
"k c #DDE4EF",
"l c #DBE2ED",
"z c #D7DFEB",
"x c #D9E0EB",
"c c #D7DEE9",
"v c #D5DBE7",
"b c #D4DAE6",
"n c #D6DCE8",
"m c #D6DEEA",
"M c #DCE3EE",
"N c #D3DAE7",
"B c #D6DDE8",
"V c white",
/* pixels */
" ... X..X.oOOo+@##OO###$%O@&o*=#-;:%@@>.XXXXX,>O##@<:#@1 X,2X34X",
">>54.XX67&*@O8#&%%+O#1O;91@19  @OO%#** .X62X45*O#OOO0O**54X66qqq",
" 7XX.6,X9w@1;:%O#8o@@@@9@**> .5 O;O&19.e4XX,4*@OO@OOO@@ . XX4.4X",
" r44X25&OO-&%:#O@@@@@9>>95 .r.r>#O99> .5XX3et&-#%@#O1* e35XXr r4",
"3..XX>8#;@$yu#&O99*>** . .54XXX>&@@* .4.r.4.Oi0y$O&@@  ..5..XXXX",
".4qXe#:p09#a##@@** .   .X. 4X2X*O&9* ....3X29##%%%-&9> .4.34XX.4",
"XXX*+O%$;@9&#%&>>**  ..5..4X42X @1  54.5X.X.r&#@8#@9 55..5XX6...",
". @#;@O%#O*@O:8**7 >95.44.4X.XX 9>55 5..Xq6.. &OO@9>  *7X4X645..",
".>O#OO;0##%s%y%>7. 5r54 .4.r354>***>>.XrXX6r* *+w&***  4X4257.4.",
"r.@+%#&&&ay:<%#*.r.5rqX4X.4X3e &t>  7r4X6XX75@t99-9>  ...X. XXqX",
"q4O+%#o@@@++Oo&o 4.r.rXXqXX6.e5d>*5...4,62549y8t*9>* 4.4X3  4X26",
"X5@af;o**  @;;;#@.XX6X664X. >>4 9=54.XXX3454*%$@*OO95.4XX* 55XXX",
"7*O%$@@d**  75*OO@=55d&-1@@= .645  54....XXX49%O1O#@9@ >> e45XX4",
"*t;#@9 >>  * ...e**;OO0;@@** .Xr5*1O@*. 4qq6X5fy#$gO**@1>5..5..4",
"=9*  5.>7  55rr74r4 OO&@*   .rX. -#h8&=.XXXX5 @%%u85X @@* 5r..4X",
"o8@*  .4r...XX4XX.X2d#&9*   5.. *&O;@9>.4X.Xr..#;94X.   7...5X.X",
"#h#@5 rXXXX4.4X,XjX4ktO*** * X.1@+;o&@* ..XX.XX1@..5.5 5 e5.rX26",
"O@@9=.X262XqXXXX777.  **  >54X.*&&9#O9=.5e4.4X575*  >>*>>*.Xr6.9",
"O&@* .XXXX57X.#$%9@ 4. **.....>&t#h$#*@l.35.. 9@9@*&&**>>7r4XX*&",
"8;@@>.4X.4.. -;$%&* ...>7.4.XX*@tO%:%1* .rX.*@@t@O#O8#** ..4X @@",
"f;d9.. 4XX.X ;&O;&* 5.55. 4XX4*9@O@z#&*755 OO@9xO@OO0%9 ..XX>O@@",
"0#*o>.....,6*#-OO@9** 9>5> .4 9@#OOO@@*>  *O#0OO0%O-9O9 5445@;OO",
"#;9  4. .r.4d*@Oo>&&9&@&@@  5e@Oc@Ow#@&&@*O;O&&&%:#O&9*. .o+@O&#",
"@19 5..X3442 @:; *9 *>*@&> 9*>OOO@@OO@Oyf@OOO@OO#uO9@> ..4oO&OO8",
"O@1> .r.7XXr9@O5.9*4 5*11.. ** @O8OoO@;8:0fyO@+;OO9@  4XXX5@O#@#",
"@&@*e...X.6. XXX5t>Xr7**=5e.55 @O::w8@9;O8fhOO#o@@9@.54X22X*@@@&",
"&@*>   4XX6.=  .5@*459@O9d75XXd*#:$%%O9O8O;%8O@&@=  .e5XX6,.@&@*",
"@@*. * qXX49@*** 1 5 &#f#1erXX%:$%+O+1@*OO&%%&@@1> .4.3X44X4*** ",
"O@ >* 5.5X3@OO;&** 99OO&@9 4X3$f8OOO;;--*wOOO@9>* 55.5.rX.>..  7",
"19*9   .4, %@O#%@* *@OOO&9 .4X>1&OO&wOx@*O#&@9 .75..4...44.>>e.4",
"&9= e...XX@:#O@%@  @@O;#1*.. 4r.XXXX. O@99&O9**> >55e...q6>**  7",
"OO9**rXXX>;faO@&9  9@%i$@&*....444q6,X1%Od&&9>*d >5X4XXX4 9@**. ",
" *d*>   &O;#@91* 55>O@#%O* ...33X6XqX.>8#*O&>*   rXX.XX6.&;v#@ .",
"X.@O*oO&o@@1@*= ..3@#OOO@*555X5XXXX4. >@@>9O@*.rr55XX245>o+a;@=5",
"4.@#;8+&&@*>*55rXXX9oo+O@*> 4..42XX444 @>7>;1554.4XXX. 1*#O@*@> ",
". 18O@@@**d 5.5.X665@@;O@tl7.5X46r..X6 = 4.8o9d4XXX.d95*@O@#O@*.",
"@9@Oo@* 5  5..543664#OO&@*e7*.XXX.r44.95.44OO@O@ 5>;&* @@O#%O*@e",
"y;#O-9**77.4...XX4X4:f#+@* > ..3,5446q ...4tO#pu*@&;#O@@1#yb$*@*",
"$$$:9dd*>*7.....4. 9$%08@*** 7.XX54X65e3.4Xd&O$:OOOOO@91-;O%a&*7",
"8O8%-*  >..X.4r4Xr*w#-;&9** .r.X4X.2X7.3r..e>o#%$f%-@#@9OO&;o&* ",
"@+@##7.r..XXrXXX6.Ow#O;;O@**5r44XXX655...XX *O#;$y%9O$-O0@O#o@1d",
"X@OO&d.43..XXX,6XX.e9O##O@>9   .rr4X>=.rrXX. d#&+%OO##w;;1-##&@9",
"6.O#@9 4XXX,4X..X..X2X*##Ot9 7 ..4X. .X4X,q. e&&;n8o@-@-;;9-oo1 ",
"4r*Oo==>544,4X,2X..4X,X4*@-*= X3.XX.55.46r545e&+O8O@o@ oO%#O+&@>",
"99t@@*> >.XXr6X...4X4.4X4   1 ..X..X..XX57.4..1#@@1@19*@+y:8aO@>",
"O9t@@>*...5.XXX.X...47.55.. =. .>@9 XX4=> ..4.5O&9*  *@@mh%%%-1*",
"999@O@ .3.XX4 .5 X4XqX55r.3.XX.>9O%%1*9@* 545..@@** . :gh#O@O@@*",
">1o<*.  4X44553X4X3XX7*5.....4 $8%y$#+@9 5 .444 * ** *$u#;;O##OO",
".-#&44e>* .75rXXXX66  5.X5.Xr49:$a%#0#@>5 *7qXX 9* >>*@1O;@&OO@*",
"4*@.4r.*953..5.X2X.4..3q4rqX. .@+Oo@#&1d*= rrXX>* .>744X7.4 d95X",
"3     **= .43XX,45 43..4Xqq64 .>&;w;O@9**  . e55 .X...X44X..>ee4",
"M**@9O-@*  ..X,,4..XXX,XXXXX45>19d@&#O&* rq.*@ d* 4...r4q622. * ",
"*&@@#On%*    .XXXXX4.443 @M. ***99>5=9* .X4e @&;&>.XXXXX6r 5*d>*",
"@1@O@Oo+9 5.43X >  .>..  * =*OwO* .X.5.  55e>O#;%#d54X35r5@** . ",
"wOOh8+@@*75rr4 &o*  ..XX5  11@;@ 5757*991*@**=o&0#  X,.55 >>*=  ",
"#&@$h&@* .XX.5*&1>*7.  ,X. *** 75r5*@1@@OO#&*1#1&>.>.X4. @9de >*",
"9OO##99 .X62q @@O@*>-&@.4.*1;@*5 5&OO@oO@O8$9*@O*5   55 >*7.. 5.",
"9Ow@&*955rX664@#y%9&O#+.. @#v8@**9&##OO:;O@#1 5*.. e*= @O#*....4",
"@OO@* e.e4X.. 8&0hOOOOO> *@OO@%N@&OO@OO:0O&@=5576X5 ****9$O5XX3.",
"#O@@= 545.4r5t:%+8::;@@ >@OOO&8hu%$;-;;%O*9> .3.X.5=9** .7> 4XXX",
"#@@** 53..4XX>$%#O$B@&*e*&&@#&&+8hiOO#@O9@ e4X6XX5>O##@ 7.XX4X6.",
"@@*555..5X.XX #@O@#a;O*@@@+:$#98Ow%#&@@1**..4X2q.**O%0o=.X6226 O",
"1*>  >.r.X,6X.**#O8#O$%@@@+#u%9@O-%#@@@* 545r4q6.9O;&91=.XX,X5Oi",
"&*9d 5XX.,,66X5*#;1@&hh#1&O&OO@*O;@@9*** ...XX44.@@1;&@*7X44X.7$"
};
