/* XPM */
static char *c7257cf9e83e4504c9b6fb4d1743b1aezb5Kgx55PHjAmMuH[] = {
/* columns rows colors chars-per-pixel */
"30 20 197 2 ",
"   c #0B0004",
".  c #080208",
"X  c #140302",
"o  c #14050C",
"O  c #150B12",
"+  c #1B0E14",
"@  c #181918",
"#  c #250E11",
"$  c #28141A",
"%  c #211519",
"&  c #371418",
"*  c #2B2819",
"=  c #0C1A27",
"-  c #281E24",
";  c #1B222A",
":  c #072338",
">  c #132839",
",  c #252125",
"<  c #2D272A",
"1  c #2A2E2D",
"2  c #2A2824",
"3  c #3A252C",
"4  c #34282C",
"5  c #382428",
"6  c #2A332A",
"7  c #36362E",
"8  c #242331",
"9  c #392E31",
"0  c #2B3330",
"q  c #2D3A31",
"w  c #323134",
"e  c #3C3336",
"r  c #3E3B3D",
"t  c #36383A",
"y  c #49271E",
"u  c #453B39",
"i  c #473639",
"p  c #523D3B",
"a  c #543632",
"s  c #4F3130",
"d  c #62312D",
"f  c #60353E",
"g  c #2E4032",
"h  c #3E4B3A",
"j  c #46413D",
"k  c #69413F",
"l  c #0D3149",
"z  c #1E3D59",
"x  c #163A52",
"c  c #2D2F46",
"v  c #3A3941",
"b  c #2D3447",
"n  c #463B41",
"m  c #5A3E45",
"M  c #194768",
"N  c #204E6F",
"B  c #3B4761",
"V  c #245273",
"C  c #46494A",
"Z  c #5A5250",
"A  c #53474B",
"S  c #674647",
"D  c #714F46",
"F  c #605E4F",
"G  c #664C54",
"H  c #6A575B",
"J  c #7E5656",
"K  c #715853",
"L  c #725D5E",
"P  c #755354",
"I  c #74564C",
"U  c #4D6357",
"Y  c #76665A",
"T  c #755C63",
"R  c #5B6364",
"E  c #5F6769",
"W  c #5F6B67",
"Q  c #636C6D",
"!  c #69686A",
"~  c #756D6B",
"^  c #75686C",
"/  c #697668",
"(  c #73736C",
")  c #78706E",
"_  c #676B71",
"`  c #696C72",
"'  c #716F72",
"]  c #697373",
"[  c #6E7976",
"{  c #747675",
"}  c #7A7577",
"|  c #747B7A",
" . c #7C7C7C",
".. c #777A78",
"X. c #863E42",
"o. c #804A58",
"O. c #8D5457",
"+. c #945C5F",
"@. c #86484D",
"#. c #80655A",
"$. c #A45862",
"%. c #9E6365",
"&. c #976A67",
"*. c #89746D",
"=. c #836B74",
"-. c #857B7B",
";. c #867378",
":. c #966E70",
">. c #A8646A",
",. c #B56A6F",
"<. c #A16F70",
"1. c #B9767A",
"2. c #A47877",
"3. c #C0747E",
"4. c #C46D76",
"5. c #76817D",
"6. c #7B827E",
"7. c #86827E",
"8. c #9A8A7B",
"9. c #7B7D81",
"0. c #857F81",
"q. c #AD7382",
"w. c #BB7E83",
"e. c #D67884",
"r. c #7D8482",
"t. c #7E8981",
"y. c #828584",
"u. c #8B8383",
"i. c #828A85",
"p. c #828489",
"a. c #89878A",
"s. c #858A89",
"d. c #8C8D8D",
"f. c #938E8D",
"g. c #968783",
"h. c #86928C",
"j. c #8E908F",
"k. c #829A8D",
"l. c #95928F",
"z. c #98908E",
"x. c #8F8D92",
"c. c #928E91",
"v. c #8D9391",
"b. c #8B9E98",
"n. c #939494",
"m. c #9C9494",
"M. c #939C97",
"N. c #9B9699",
"B. c #949C9A",
"V. c #9C9B9C",
"C. c #969799",
"Z. c #AB8B88",
"A. c #B2918C",
"S. c #A98A91",
"D. c #B48D90",
"F. c #A29594",
"G. c #A4979A",
"H. c #AE9299",
"J. c #A29C9E",
"K. c #AE9C9C",
"L. c #B49C9A",
"P. c #92A096",
"I. c #94A19B",
"U. c #9DA19C",
"Y. c #98AA9E",
"T. c #A2A19E",
"R. c #A4A999",
"E. c #B4AA9E",
"W. c #A49FA2",
"Q. c #A99FA2",
"!. c #9CA5A2",
"~. c #99ABA3",
"^. c #A4A2A3",
"/. c #ABA3A4",
"(. c #A2AAA3",
"). c #ADA5A9",
"_. c #AAABAC",
"`. c #A7ACA9",
"'. c #BBA5A6",
"]. c #B1A7AA",
"[. c #B2AAAC",
"{. c #B1A3A3",
"}. c #BAB1AC",
"|. c #B4AEB0",
" X c #ADB9B5",
".X c #BEB2B6",
"XX c #C68587",
"oX c #D18C8F",
"OX c #DF8C94",
"+X c #C5ADA1",
"@X c #D3ACA6",
"#X c #CBB6A9",
"$X c #D3AFB3",
"%X c #C9B7B6",
"&X c #ADC2B5",
"*X c #E0C3BD",
"=X c #E0BDC3",
/* pixels */
"/.{.].]._._._.`.~.&X&XR.R.#X#XL.'..X|.{.].).W.Q.W.^.J.V.m.C.",
"T.T././.)._._._. X~.M.R.E.+X@X@XL.[.Q.W.).).W./.W.J.V.N.C.n.",
"T.U.^./.).).^.(._.~.[.%X*X@XXX<.L.[./.V.Q.Q.N.N.V.V.N.C.n.n.",
"P.U.T.T.).^.^.^._._.T.*.2.1.1.@.0.^.^.V.W.N.n.C.N.m.n.n.c.c.",
"P.P.U.U.^.^.W.W.J.{.K.J >.4.4.,.L v.(.V.V.B.C.U.M.C.n.d.f.d.",
"P.I.V.U.W.W.W.W.Q.G.'.<.8.,.4.4.T B. X!.U.V.C.U.n.n.n.j.d.d.",
"P.P.U.T.J.W.W.W.|.G.F.S O.X.4.e.L h.~.B.B.I.B.C.n.n.v.j.f.d.",
"P.V.V.T.^.W.!.W.l.T.}.K &.>.XX+.u Q [ [ t.I.I.B.v.v.n.d.v.d.",
"n.c.m.N.V.W.V.V.!.h.Y.8.Y I a k j @ g 0 q C v.v.b.v.v.x.d.h.",
"m.z.m.N.V.V.I.b.P.I.Y./ * y y a j 0 0 0 1 0 i.n.v.v.d.s.s.t.",
"z.z.m.G.W.N.V.!.Y.t.5.h * #.#.K u r w w 1 @ ' M.d.d.h.p.r.t.",
"z.z.m.G.N.N.C.b.b.U g 6 F 8.8.*.i r n w < ; C n.s.s.t.r.r.r.",
"f.g.l.m.N.N.N.C.h.q 2 7 7.I &.#.f 5 m - + 4 < u.p.y.y.t.r.5.",
"i.d.d.l.c.C.C.n.V.7 % p A.%.,.O.m i G e   - % ! -.9. .5.5.r.",
"7.i.s.d.c.c.f.j.V.Z X a <.oXOX$.m T ;.=.$ % < e } } | | 5.[ ",
"6.i.i.d.d.x.f.f.7.;.# 5 & <.2.@.f S.H.%Xm # n O { ] { | [ [ ",
"6.7.r.s.d.x.p.a.u.~ e - - b B c ^ $X=XS.H.G - 4 w ` ` ] [ ] ",
"6.6.7.t.r.p.0.0.0.) r ; > x V z ^ D.S.G T 3 + - c _ ` _ ] Q ",
"( ( 6. .9.9.9.0.;.~ e ; : l N z n P S # 3 o . @ v _ _ E W R ",
"( ( ( 5.9.9.} } ) ^ v = = : M z O & &   $ . . . n _ Q R E R "
};
