/* XPM */
static char *_11d8e196bf24559bd58df4c16134dcbODsVSYbDxiXdbDec[] = {
/* columns rows colors chars-per-pixel */
"64 64 188 2 ",
"   c None",
".  c #3F4E36",
"X  c #5D4C3B",
"o  c #47573F",
"O  c #5C523F",
"+  c #454D42",
"@  c #4A5549",
"#  c #4D5B4B",
"$  c #495444",
"%  c #5F5F49",
"&  c #515C4D",
"*  c #525E52",
"=  c #55624C",
"-  c #5A6D4D",
";  c #566A4F",
":  c #5B714D",
">  c #566453",
",  c #596555",
"<  c #5C6D54",
"1  c #576259",
"2  c #5C665A",
"3  c #5E6C5B",
"4  c #5E7253",
"5  c #5E7159",
"6  c #67644F",
"7  c #65694F",
"8  c #64784E",
"9  c #676652",
"0  c #686650",
"q  c #666B54",
"w  c #616D5D",
"e  c #617556",
"r  c #647955",
"t  c #697C56",
"y  c #63745D",
"u  c #69735B",
"i  c #66795C",
"p  c #697B5D",
"a  c #636D61",
"s  c #667461",
"d  c #697663",
"f  c #667A62",
"g  c #6B7C63",
"h  c #6E7C6A",
"j  c #727E6B",
"k  c #717B70",
"l  c #698354",
"z  c #6C825B",
"x  c #70875D",
"c  c #748D5C",
"v  c #6E8264",
"b  c #6F8269",
"n  c #728463",
"m  c #768B66",
"M  c #788C67",
"N  c #73846B",
"B  c #78866D",
"V  c #75896B",
"C  c #7B8E6C",
"Z  c #7B9166",
"A  c #7D936B",
"S  c #749066",
"D  c #7A8574",
"F  c #768972",
"G  c #7B8C74",
"H  c #7E8F7A",
"J  c #7E9075",
"K  c #7E917A",
"L  c #81946D",
"P  c #809B6E",
"I  c #828F7B",
"U  c #819374",
"Y  c #859A75",
"T  c #8A9D74",
"R  c #82937B",
"E  c #89967A",
"W  c #86997C",
"Q  c #8A9C7C",
"!  c #8CA27C",
"~  c #869582",
"^  c #8B9586",
"/  c #849882",
"(  c #8B9C84",
")  c #8D9D8A",
"_  c #919E8B",
"`  c #8F9A90",
"'  c #8DA283",
"]  c #8FA28F",
"[  c #93A486",
"{  c #93A48C",
"}  c #99A58F",
"|  c #96AB8B",
" . c #9AAB8D",
".. c #9FB28F",
"X. c #95A492",
"o. c #9BA696",
"O. c #9AAB94",
"+. c #9EAD9B",
"@. c #98A895",
"#. c #9FB295",
"$. c #9EB19B",
"%. c #A0AF93",
"&. c #A1AE9F",
"*. c #A3B596",
"=. c #A9BC96",
"-. c #A3B39C",
";. c #A9BB9B",
":. c #A4BA98",
">. c #A2AEA0",
",. c #A3B3A2",
"<. c #A9B6A4",
"1. c #A6B9A2",
"2. c #ABBBA3",
"3. c #ABB6AA",
"4. c #A7BBA8",
"5. c #ADBDAB",
"6. c #B1BDAC",
"7. c #AFBEB4",
"8. c #B2BDB6",
"9. c #ABC1A5",
"0. c #AFC2AC",
"q. c #B0C1A5",
"w. c #B3C2AD",
"e. c #B8C7AB",
"r. c #B5C8AA",
"t. c #BBCCAD",
"y. c #B4C3B3",
"u. c #B9C7B7",
"i. c #B5C8B6",
"p. c #BBCBB4",
"a. c #B4C6B9",
"s. c #BAC6B9",
"d. c #B7C8BD",
"f. c #BCCBBD",
"g. c #BED2BF",
"h. c #C2CDBC",
"j. c #C1CEB5",
"k. c #C3D3BC",
"l. c #C7DBBE",
"z. c #C9D4BB",
"x. c #BDCDC2",
"c. c #BFD2C4",
"v. c #C1CFC3",
"b. c #C2CFC9",
"n. c #C4D3C4",
"m. c #CBD5C3",
"M. c #CCDAC7",
"N. c #C5D3CA",
"B. c #C9D6CC",
"V. c #CCDACC",
"C. c #D3DDCD",
"Z. c #CBD6D2",
"A. c #CDDAD3",
"S. c #C4D1D1",
"D. c #D1D7D7",
"F. c #D2DDD4",
"G. c #D3DEDA",
"H. c #DADFDA",
"J. c #D5E3CC",
"K. c #D5E3D3",
"L. c #DBE5D4",
"P. c #DAE9D4",
"I. c #D5E2DC",
"U. c #DBE3DC",
"Y. c #DDE9DC",
"T. c #E2EBDF",
"R. c #E9F1DF",
"E. c #D4DCE0",
"W. c #DDE7E1",
"Q. c #DEEAE3",
"!. c #DFE8E9",
"~. c #E0E4E0",
"^. c #E3ECE4",
"/. c #E3ECE9",
"(. c #E9EEE9",
"). c #E6F3E3",
"_. c #E9F4E4",
"`. c #E7F0EA",
"'. c #EEF9EB",
"]. c #F1F4EE",
"[. c #F0F8EC",
"{. c #EFF6F2",
"}. c #F6F8F4",
"|. c #F8FDF6",
" X c #F6FAF8",
".X c #FEFEFD",
"XX c #FAFDF9",
"oX c #F3F7FA",
/* pixels */
"                                                                                                                                ",
"                                                                                                                                ",
"                                                                                                                                ",
"                                                                                                                                ",
"                                                                                                                                ",
"                                                                                                                                ",
"                                                                                                                                ",
"                                                                                                                                ",
"                                                                + w a                                                           ",
"                                                                w B g &                                                         ",
"                                                              * o.V.o.u +                                                       ",
"                                                            @ k V.XX(.o.1                                                       ",
"                                                            a 3.}..X.XD.D #                                                     ",
"                                                          2 ^ ^..X].}. Xs.d @                                                   ",
"                                                          j m. X(.D.~..X].&.w                                                   ",
"                                                        w o.]. XG.S.D./.oX~.^ %                                                 ",
"                                                      > D C. X(.b.x.b.S.E.{.m.N                                                 ",
"                                                      s ;.^.~.V.-.@.h.H.b.Y.[.-.s                                               ",
"                                                    w R T.}.H.j.Q ;.z.H.C.-._.J.V ,                                             ",
"                                                    u #.C.j.L.*.T Z e.L.j.m 2.z.G f                                             ",
"                                                  f z S Z c ..! A l ! =.T L Q 6.W g w                                           ",
"                                                  b | ' z c l | l.S A ! z =.;.p./ v s                                           ",
"                                                  G i.g.#.t.V ' p.' | r.! M ! 5.( g w                                           ",
"                                                  > / f.c.i.W V ..#.S r.9.S W $./ y                                             ",
"                                                  & f R 4.d.f.0.$.] / 0.4.$.O.K g f >                                           ",
"                                                # s p p g / ,.d.x.x.x.c.4./ b z i g i >                                         ",
"                                              @ w p n } f i v F / ] $.] V z 5 : e n v f                                         ",
"                                              2 _ ;.L U 5 ; : : 4 5 5 l 4 : 5 4 8 A ,.F y                                       ",
"                                            > N z.J.[ e. .Y 4 ! 5 : 5 : : 4 ] #.Z Y K.X.g                                       ",
"                                            2 F B.J.5.z.r.k.' ! ' v 9.A K :.i.r.J Y B.O.d                                       ",
"                                              d -.v.F.2.{ B.c.0.:.C r.! Z r.i.c.1.y.N.) f                                       ",
"                                              , g I 6.m.3.B.I.A.i.1.g.$.' #.' i.B.N.3.N ,                                       ",
"                                              i y p G ,.x.K.Q.!.Q.F.c.x.x.3.7.b.B.2.G p 5                                       ",
"                                            3 p x i e v H O.a.c.Z.A.A.B.A.A.G.B.$.m z v f ,                                     ",
"                                          1 p v 9.O.i : 5 f N H ] $.0.a.f.y.+.K i : t m v s                                     ",
"                                          i p L g.a.1.W V ] N p 4 l v b B F E i p G z A G v a                                   ",
"                                        1 I  .Q f.c.p.r.*.P.Q n U t - 7 B -.L.E %.M. .w.<.B g                                   ",
"                                        , ) m.%.c.w.' L U q.! M r.[ [ t ..9.j.p.6.L.6.n.x.U g 2                                 ",
"                                          G C.n.y.y.,.t.p.Q ;.| A 2.C.[ L ! *.^.N.Y.<.x.W.] y #                                 ",
"                                          w +.F.V.B.y.V.).q.M.p. .T.^.R.z.j.-.w.F.W.N.Z.x.H y                                   ",
"                                          y b ~ 3.n.B.s.A.Y.N.n.C.H.B.T.m.).B.6.F.F.B.6.R g g <                                 ",
"                                        2 p 5 y g Q 0.n.G.Q.I.I.(.U.v.^.B.A.V.B.Z.B.&.B t n n d ,                               ",
"                                        i i : : e u h U X.a.B.A.F.F.v.F.A.A.I.A.u.( p q e V n v i *                             ",
"                                      s v z e - ; - e p f b R X.&.3.y.s.f.f.4.( v 5 : e X.,.( V g s                             ",
"                                    a I p.2.O.( ;.U g < 4 e i p p g N N v g e 4 e n e $.N.x.0.W n g 2                           ",
"                                    a o.Y.B.B.B.^.z. .[  .4 ; < J R 5 4 ; ; 5 ] w.K.;.p.V.a.0.p.W g w                           ",
"                                    2 ` A.S.I.F.L.w.Z 9.p.p < < 9.w.}  .R R G i.n.B.B.i.y.c.S.).2.g 1                           ",
"                                      k 5.Z.Z.A.6.*.p.M.t.:.#.Q L.6.m.M.k.B.i.5.x.7.A.B.y.Z.Q.V.~ w                             ",
"                                        H s.Z.B.>.3.G.V.g.M.P.*.M.y.h.m.w.o.y.A.!.W.U.D.Z.^.h.I s #                             ",
"                                        3 ^ v.F.b.N.G.Z.N.y.B.h.m.s.m.L.m.z.C.(.!.Z.Z.I.U.6.B y #                               ",
"                                          2 R y.K.G.Z.N.A.N.x.v.8.h.Y.[.XXXX].U.A.I.W.m.{ g < o                                 ",
"                                            , h ) a.B.A.A.Z.Z.v.y.u.k.L.(.^.Y.U.Y.V.<.G y = .                                   ",
"                                                2 f I { 3.y.f.x.n.B.n.B.V.n.h.3._ D s , $                                       ",
"                                                  @ = < w g B G G U U R G D h s 2 *                                             ",
"                                                          * w p q 7 0 7 t < @                                                   ",
"                                                              d % X X O u ,                                                     ",
"                                                              s u 9 0 9 d ,                                                     ",
"                                                                w y d s 2                                                       ",
"                                                                                                                                ",
"                                                                                                                                ",
"                                                                                                                                ",
"                                                                                                                                ",
"                                                                                                                                ",
"                                                                                                                                "
};
