/* XPM */
static char *_f0eedf22c9f4831d750069003796a5auYWT3g7MNpfH4xDh[] = {
/* columns rows colors chars-per-pixel */
"64 64 174 2 ",
"   c None",
".  c #372E24",
"X  c #392F24",
"o  c #3A3225",
"O  c #3E3529",
"+  c #41372D",
"@  c #433A2E",
"#  c #483F2E",
"$  c #453D32",
"%  c #474032",
"&  c #4B4335",
"*  c #4D4539",
"=  c #4F4838",
"-  c #51473C",
";  c #534B3D",
":  c #59513E",
">  c #544D42",
",  c #575044",
"<  c #5B5343",
"1  c #5F5946",
"2  c #5C554A",
"3  c #5F584A",
"4  c #665547",
"5  c #615A47",
"6  c #60574A",
"7  c #635C4B",
"8  c #6B5A4C",
"9  c #735E4D",
"0  c #785F4E",
"q  c #645E51",
"w  c #685F50",
"e  c #67604E",
"r  c #69624E",
"t  c #78604E",
"y  c #676151",
"u  c #6B6453",
"i  c #6F6956",
"p  c #6D6758",
"a  c #6E6959",
"s  c #756252",
"d  c #7D6253",
"f  c #716B57",
"g  c #786A55",
"h  c #756658",
"j  c #78675B",
"k  c #736C5B",
"l  c #7A6D5E",
"z  c #77715D",
"x  c #7A735E",
"c  c #746E60",
"v  c #7A6B60",
"b  c #777161",
"n  c #7B7562",
"m  c #7E7865",
"M  c #7F7A6A",
"N  c #8A6755",
"B  c #896A58",
"V  c #92705D",
"C  c #8E6F60",
"Z  c #847566",
"A  c #887263",
"S  c #817B66",
"D  c #847D6A",
"F  c #8E796C",
"G  c #9D7664",
"H  c #867E71",
"J  c #A47762",
"K  c #A57963",
"L  c #A27A68",
"P  c #AC7C69",
"I  c #87816D",
"U  c #89836E",
"Y  c #8A8471",
"T  c #8E8973",
"R  c #938673",
"E  c #928C76",
"W  c #948E79",
"Q  c #969077",
"!  c #96917A",
"~  c #9A947D",
"^  c #9E997E",
"/  c #AE8069",
"(  c #B58167",
")  c #B4816A",
"_  c #A38D7E",
"`  c #A4917F",
"'  c #A09A7F",
"]  c #9C9682",
"[  c #9E9982",
"{  c #A29D83",
"}  c #AB9688",
"|  c #A39D89",
" . c #B49B8B",
".. c #B69F90",
"X. c #A6A187",
"o. c #A9A387",
"O. c #A6A189",
"+. c #ABA58C",
"@. c #AEA88E",
"#. c #B0AB8F",
"$. c #ACA790",
"%. c #AEA991",
"&. c #BBA394",
"*. c #B0AB91",
"=. c #B0AA92",
"-. c #B1AC91",
";. c #B2AD91",
":. c #B3AE92",
">. c #B3AD95",
",. c #B3AE97",
"<. c #B6AF96",
"1. c #B2AD93",
"2. c #B5AF98",
"3. c #B6B195",
"4. c #B6B295",
"5. c #B6B195",
"6. c #B8B397",
"7. c #BAB596",
"8. c #B9B496",
"9. c #B6B098",
"0. c #B7B298",
"q. c #B6B199",
"w. c #B8B298",
"e. c #B9B499",
"r. c #BAB598",
"t. c #BBB69B",
"y. c #BAB69C",
"u. c #BCB69C",
"i. c #BBB59A",
"p. c #BDB89B",
"a. c #BFB99E",
"s. c #BFBA9E",
"d. c #BFBA9D",
"f. c #BDB99D",
"g. c #BFBAA0",
"h. c #C3A99A",
"j. c #CDAD9C",
"k. c #C0BB9F",
"l. c #C1BC9F",
"z. c #C5BF9F",
"x. c #CCB3A4",
"c. c #C3BEA3",
"v. c #C2BDA1",
"b. c #C4BFA1",
"n. c #C4BEA7",
"m. c #C3BDA3",
"M. c #C3BDA8",
"N. c #D6B6A6",
"B. c #DCBCA9",
"V. c #C6C1A5",
"C. c #C6C1A6",
"Z. c #C8C3A2",
"A. c #C8C3A6",
"S. c #CAC6A6",
"D. c #C9C4A3",
"F. c #CBC6AB",
"G. c #CFCAAD",
"H. c #CEC9AA",
"J. c #D3CDAC",
"K. c #D6D0AE",
"L. c #D8D2AD",
"P. c #CFC9B2",
"I. c #D3CCB1",
"U. c #D7D1B0",
"Y. c #D9D2B5",
"T. c #DAD4B2",
"R. c #DAD5B9",
"E. c #DFD9BD",
"W. c #E0D9B6",
"Q. c #E3DCBB",
"!. c #E7E1BC",
"~. c #E9E2BE",
"^. c #E4DEC3",
"/. c #E9E3C1",
/* pixels */
"                                                                                                                                ",
"                                                                                                                                ",
"                                                                                                                                ",
"                                                                ]                                                               ",
"                                                      q O.[ Q p.9.a                                                             ",
"                                                      S f.+.{ ~ Y S     T E                                                     ",
"                                          > H       [ { l f k n I k S [ y.v.$.X.f.]                                             ",
"                                        q b 5.U.u.E m f U 9.6.@.%.! z S ! =.,.u.S.g.! n b                                       ",
"                                y   > y $.A.6.X.I i I ^ @.v.d.+.X.O.+.[ z z z n ^ 4.Z.@.Q n                                     ",
"                              ] W 3 2 { r.U u b U Q ^ @.4.6.@.' ^ r.Z.Z.r.@.X.x x m Q ;.6.3.Y m I                               ",
"                            u | b k i z f x E O.O.+.+.4.V.+.o.^ X.%.%.%.+.p.d.X.T S r U Q 4.b.b.,.S                             ",
"                k n.I.D > > f p [ ] Y n ^ %.6.d.3.@.V.6.+.^ ' ^ ^ +.O.X.+.@.6.@.4.+.U I I x x [ S.X.      b n                   ",
"                ' I z k 7 M I 7 M ] $.P.C.p.p.@.+.A.G.d.:.+.+.@.@.+.o.! +.#.o.o.Z.6.9.%.^ O.^ x Y +.I M 7 U Q c                 ",
"                T.+.u D q u < n ] m b $.%.6.;.+.+.r.y.p.l.f.#.@.X.{ :.@.@.@.+.+.@.^ @.+.z m [ T n u b W n n U a                 ",
"                J.{ e a u y e T g.I 1 m ] +.o.X.+.O.+.o.3.H.p.o.X.@.3.@.@.o.' +.o.o.%.Y Y [ 7 3 i 3 k ] I a D a                 ",
"                J.+.I y U I T Y e b x b ] T m I ~ ! o.+.@.:.:.@.+.' o.o.' ^ ^ U x x Y Y Q E.x m U m z S z D U k                 ",
"                m.=.w.2.W k T [ u U m r i i 5.,.e k @.v.@.+.%.C.:.^ ^ [ O.T e I F.:.e 3 f X.S U Y Y k I E H m k                 ",
"                ~ { +.:.g.5.3.X.r n U n i S x z i i +.O.! [ %.:.3.:.^ { ,.M I R I x x e m u : S Y W W I n p w 2                 ",
"                  p m W | @.%.:.+.S z i S ,.r S M k ! n D I S ] E m I m T n +.^.D z E u p f k D U D n i q u                     ",
"                    Y x x W +.@.3.y.+.U [ 5.k S S 7 7 u %.R.g.T E v.n.E 5 1 S w.E x T I D Y Y D m f e k Y D q                   ",
"                    l.+.U f x E X.+.,.6.r.6.! f b < m X.x T g.U.v.{ I E E r k 4 r D Y Y Y D m f e i Y ] Y b 2                   ",
"                    %.5.1.X.T z k I ^ +.@.@.,.| S 1 U S.@.! m i m I ~ ~ W 7 u n Y Y U D m f 7 u S T T I b 7                     ",
"                      x ^ =.9.$.E 1 r x W X.@.,.2.{ @.A.@.@.+.m E ~ U U ~ S H Y I S n k u w 7 Y T I b u 7                       ",
"                      R E m Y [ X.i k u 3 i S ~ X.%.,.#.@.@.@.I I Q U U Y Y D S n k 8 7 1 m u n k u p m k                       ",
"                        r.:.! i u e 7 r f m i 7 k I ! X.@.@.@.U m T U U I m b f 7 7 u b b p < 7 y M D k q                       ",
"                          Y | z a k 1 n ] X.[ b Y D i x T { @.Y k Y Y S x i 7 7 p n D Y Y m 7 u p b 7 >                         ",
"                          n ~ r 3 u S [ +.%.=.D X.f.' I i f U m z I n u e p 7 y D I Y I D U l 3 1 q q                           ",
"                            J.3.T [ +.@.+.+.@.Y S l.7.#.X.U i e e u i b D D y 7 D I I Y Y Y Y M b b p                           ",
"                            Y.J.3.5.=.#.+.+.+.+.I S ~ 4.d.5.^ r M E Y I m u 1 p S Y U I Y Y Y Y U m u                           ",
"                            E.U.;.^ X.+.+.+.$.+.+.^ r m Q 6.3.z T Y k u 1 7 k m I U U S D Y b i D S p                           ",
"                            W.T.^ : 5 E +.+.+.{ +.X.g @.Q m I r u u k S b 7 m Y U Y U Y D 7 % = n S p                           ",
"                          m T.J.Q & & S | +.$.+.| @.I S X.$.Q r H Y Y n e 7 m Y U Y Y I M - o $ c D p                           ",
"                          z S.J.~ & = S O.@.^ n E [ +.~ m n Y i H n y 7 i m H D k u D I D < X # u D p                           ",
"                          i Z.J.^ ; = I ^ o.E & % e { %.{ E I e 7 q f m I I M < & ; S Y U 1 O & f D h                           ",
"                          i Z.J.>.D e Y o.@.Q & O e ^ @.+.X.@.x z D U U I I m & X - S U I u - u M D i                           ",
"                          a S.E.m.+.^ X.@.%.~ & O u [ @.@.X.X.x M Y U U I Y I - o * x U U S x D Y S p                           ",
"                          a H.!.J.3.1.#.@.@.^ ; O i [ @.@.+.+.S D Y Y I S Y D > O - n U U D U U Y S p                           ",
"                          a H./.J.3.#.#.@.@.O.S 3 x o.@.+.@.@.S D T I I I Y I 7 7 k D U U D Y D Y S a                           ",
"                          a H.~.L.7.#.@.@.@.%.+.[ [ +.+.+.+.@.S I T S I Y Y I D D U m z D U I D H D k                           ",
"                          k J.~.L.7.1.#.@.%.+.%.%.%.%.+.+.@.@.m I T I I I I Y D b 7 & & h U U D D D k                           ",
"                          k K.!.L.6.6.#.+.%.+.| o.@.@.o.@.o.X.m Y T Y Y U z 7 : - % o @ k Y U U Y D k                           ",
"                          k J.!.T.7.k.#.<.;.X.X.+.@.@.@.+.+.+.S Y E Y Y k & o o + @ o * c Y Y Y Y D k                           ",
"                          n K.Q.T.z.u.w.<.+.+.#.@.@.@.@.@.o.@.S I E U H 5 + X X O $ O $ ; 7 v S Y D k                           ",
"                          m U.Q.T.L.b.;.E ~ +.@.@.@.#.@.+.X.o.S Y W I I S 5 O X . O $ $ @ O @ < Z D k                           ",
"                          D L.W.T.K.] f 4 9 Z { o.#.@.@.+.+.+.I U W U I U f @ X o . X O $ $ X * k D k                           ",
"                          R L.L.k.S < 9 G P N g E +.@.@.+.$.%.I I W I I S ; o X . . X . O $ O ; M S k 2                         ",
"                          U #.U 5 : d / ) ( ) V s E +.@.+.X.=.D I W I I u @ X X o X X . @ $ @ 2 H D k 2                         ",
"                          2 1 6 x x 9 K ) ) ) ) G s R +.| $.=.D S Q U U r @ X X . X @ * > , 6 v H D k 2                         ",
"                          y 7 M v j h 0 J P ( ) ) L d U X.+.+.D I Q U U k $ . X . O < k m D D Y Y Z k 2                         ",
"                          z p q A h.h.s d K ( ( ( ) L 9 W +.X.D I Q U U m , & $ O # u I Y Y Y Y H n c 2                         ",
"                          M p 7 ..B.h.C ` d G P ( K B 8 W +.%.D I Q D U U D S k r 7 b I U U Y U m v k 2                         ",
"                          7 2 8 &.B...F x.l 8 C B s k r [ +.+.D U ! U Y I I Y Y U U D D I Y Y S k p 6                           ",
"                            > q ..j.A l } Z x 7 x U I e E X.X.Y I [ U U U D D D U U Y Y D M c p 7                               ",
"                            2 7  .N._ s F Z m x R U I r T +.| I I { U I U D U I U U D m k p 2                                   ",
"                              6 R h.&.Z h.Z M b T Y S r E +.X.Y S ! I I D S Y Y S m k y 2                                       ",
"                                  w v j &.n D b Y Y S r W +.+.M m Q I I D S M n p 7 2                                           ",
"                                        v u D k Y I k r E ] W b m Q S S I b y 2                                                 ",
"                                          > k p b y - , p S Y k S ! I b p 2                                                     ",
"                                            2 ,           2 k p z S 7 >                                                         ",
"                                                                                                                                ",
"                                                                                                                                ",
"                                                                                                                                ",
"                                                                                                                                ",
"                                                                                                                                "
};
